<mxfile host="app.diagrams.net" agent="Mozilla/5.0 (Windows NT 10.0; Win64; x64) AppleWebKit/537.36 (KHTML, like Gecko) Chrome/130.0.0.0 Safari/537.36" version="24.8.9">
  <diagram name="Page-1" id="g0w12NiWeAtO8eLzC-FF">
    <mxGraphModel dx="965" dy="510" grid="1" gridSize="10" guides="1" tooltips="1" connect="1" arrows="1" fold="1" page="1" pageScale="1" pageWidth="850" pageHeight="1100" math="0" shadow="0">
      <root>
        <mxCell id="0" />
        <mxCell id="1" parent="0" />
        <mxCell id="liw3NZhuyYNR2irqzcsa-3" value="" style="edgeStyle=orthogonalEdgeStyle;rounded=0;orthogonalLoop=1;jettySize=auto;html=1;" edge="1" parent="1" source="liw3NZhuyYNR2irqzcsa-1" target="liw3NZhuyYNR2irqzcsa-2">
          <mxGeometry relative="1" as="geometry" />
        </mxCell>
        <mxCell id="liw3NZhuyYNR2irqzcsa-1" value="start" style="rounded=1;whiteSpace=wrap;html=1;" vertex="1" parent="1">
          <mxGeometry x="365" y="110" width="120" height="60" as="geometry" />
        </mxCell>
        <mxCell id="liw3NZhuyYNR2irqzcsa-5" value="" style="edgeStyle=orthogonalEdgeStyle;rounded=0;orthogonalLoop=1;jettySize=auto;html=1;" edge="1" parent="1" source="liw3NZhuyYNR2irqzcsa-2" target="liw3NZhuyYNR2irqzcsa-4">
          <mxGeometry relative="1" as="geometry" />
        </mxCell>
        <mxCell id="liw3NZhuyYNR2irqzcsa-2" value="ใส่ชื่อ&amp;nbsp;" style="shape=parallelogram;perimeter=parallelogramPerimeter;whiteSpace=wrap;html=1;fixedSize=1;" vertex="1" parent="1">
          <mxGeometry x="365" y="200" width="120" height="60" as="geometry" />
        </mxCell>
        <mxCell id="liw3NZhuyYNR2irqzcsa-7" value="" style="edgeStyle=orthogonalEdgeStyle;rounded=0;orthogonalLoop=1;jettySize=auto;html=1;" edge="1" parent="1" source="liw3NZhuyYNR2irqzcsa-4" target="liw3NZhuyYNR2irqzcsa-6">
          <mxGeometry relative="1" as="geometry" />
        </mxCell>
        <mxCell id="liw3NZhuyYNR2irqzcsa-4" value="ใส่นามสกุล" style="shape=parallelogram;perimeter=parallelogramPerimeter;whiteSpace=wrap;html=1;fixedSize=1;" vertex="1" parent="1">
          <mxGeometry x="365" y="290" width="120" height="60" as="geometry" />
        </mxCell>
        <mxCell id="liw3NZhuyYNR2irqzcsa-9" value="" style="edgeStyle=orthogonalEdgeStyle;rounded=0;orthogonalLoop=1;jettySize=auto;html=1;" edge="1" parent="1" source="liw3NZhuyYNR2irqzcsa-6" target="liw3NZhuyYNR2irqzcsa-8">
          <mxGeometry relative="1" as="geometry" />
        </mxCell>
        <mxCell id="liw3NZhuyYNR2irqzcsa-6" value="ออกมาเป็น ชื่อนามสุกล&lt;div&gt;TC, RMUTL, Chiang Mai, Thailand&lt;/div&gt;" style="shape=parallelogram;perimeter=parallelogramPerimeter;whiteSpace=wrap;html=1;fixedSize=1;" vertex="1" parent="1">
          <mxGeometry x="365" y="380" width="120" height="60" as="geometry" />
        </mxCell>
        <mxCell id="liw3NZhuyYNR2irqzcsa-8" value="end" style="rounded=1;whiteSpace=wrap;html=1;" vertex="1" parent="1">
          <mxGeometry x="365" y="470" width="120" height="60" as="geometry" />
        </mxCell>
      </root>
    </mxGraphModel>
  </diagram>
</mxfile>
